<?xml version="1.0" encoding="UTF-8"?>
<svg xmlns="http://www.w3.org/2000/svg" xmlns:xlink="http://www.w3.org/1999/xlink" width="60px" height="60px" viewBox="0 0 60 60" version="1.1">
<g id="surface1">
<path style=" stroke:none;fill-rule:nonzero;fill:rgb(64.313725%,69.019608%,75.294118%);fill-opacity:1;" d="M 42.5 56.25 L 42.5 57.5 C 42.5 58.191406 41.941406 58.75 41.25 58.75 L 18.75 58.75 C 18.058594 58.75 17.5 58.191406 17.5 57.5 L 17.5 56.25 L 21.25 53.75 L 21.25 46.25 L 38.75 46.25 L 38.75 53.75 Z M 42.5 56.25 "/>
<path style=" stroke:none;fill-rule:nonzero;fill:rgb(94.509804%,94.901961%,94.901961%);fill-opacity:1;" d="M 58.75 35 L 58.75 41.25 C 58.75 44.011719 56.511719 46.25 53.75 46.25 L 6.25 46.25 C 3.488281 46.25 1.25 44.011719 1.25 41.25 L 1.25 35 Z M 58.75 35 "/>
<path style=" stroke:none;fill-rule:nonzero;fill:rgb(64.313725%,69.019608%,75.294118%);fill-opacity:1;" d="M 58.75 35 L 1.25 35 L 1.25 6.25 C 1.25 3.488281 3.488281 1.25 6.25 1.25 L 53.75 1.25 C 56.511719 1.25 58.75 3.488281 58.75 6.25 Z M 58.75 35 "/>
<path style=" stroke:none;fill-rule:nonzero;fill:rgb(28.627451%,66.666667%,93.333333%);fill-opacity:1;" d="M 52.5 6.25 L 7.5 6.25 C 6.808594 6.25 6.25 6.808594 6.25 7.5 L 6.25 35 L 53.75 35 L 53.75 7.5 C 53.75 6.808594 53.191406 6.25 52.5 6.25 Z M 52.5 6.25 "/>
<path style=" stroke:none;fill-rule:nonzero;fill:rgb(27.843137%,29.803922%,32.941176%);fill-opacity:1;" d="M 58.75 30 C 59.441406 30 60 29.441406 60 28.75 L 60 6.25 C 59.996094 2.800781 57.199219 0.00390625 53.75 0 L 6.25 0 C 2.800781 0.00390625 0.00390625 2.800781 0 6.25 L 0 41.25 C 0.00390625 44.699219 2.800781 47.496094 6.25 47.5 L 20 47.5 L 20 53.082031 L 16.804688 55.207031 C 16.457031 55.4375 16.25 55.832031 16.25 56.25 L 16.25 57.5 C 16.25 58.878906 17.371094 60 18.75 60 L 41.25 60 C 42.628906 60 43.75 58.878906 43.75 57.5 L 43.75 56.25 C 43.75 55.832031 43.542969 55.441406 43.195312 55.210938 L 40 53.082031 L 40 51.25 C 40 50.558594 39.441406 50 38.75 50 C 38.058594 50 37.5 50.558594 37.5 51.25 L 37.5 53.75 C 37.5 54.167969 37.707031 54.558594 38.054688 54.789062 L 41.25 56.917969 L 41.25 57.5 L 18.75 57.5 L 18.75 56.917969 L 21.945312 54.792969 C 22.292969 54.5625 22.5 54.167969 22.5 53.75 L 22.5 47.5 L 53.75 47.5 C 57.199219 47.496094 59.996094 44.699219 60 41.25 L 60 35 C 60 34.308594 59.441406 33.75 58.75 33.75 L 7.5 33.75 C 6.808594 33.75 6.25 34.308594 6.25 35 C 6.25 35.691406 6.808594 36.25 7.5 36.25 L 57.5 36.25 L 57.5 41.25 C 57.5 43.320312 55.820312 45 53.75 45 L 6.25 45 C 4.179688 45 2.5 43.320312 2.5 41.25 L 2.5 6.25 C 2.5 4.179688 4.179688 2.5 6.25 2.5 L 53.75 2.5 C 55.820312 2.5 57.5 4.179688 57.5 6.25 L 57.5 28.75 C 57.5 29.441406 58.058594 30 58.75 30 Z M 58.75 30 "/>
<path style=" stroke:none;fill-rule:nonzero;fill:rgb(27.843137%,29.803922%,32.941176%);fill-opacity:1;" d="M 24.632812 9.117188 C 24.144531 8.628906 23.355469 8.628906 22.867188 9.117188 L 15.367188 16.617188 C 14.878906 17.105469 14.878906 17.894531 15.367188 18.382812 L 22.867188 25.882812 C 23.355469 26.359375 24.136719 26.351562 24.617188 25.867188 C 25.101562 25.386719 25.109375 24.605469 24.632812 24.117188 L 18.015625 17.5 L 24.632812 10.882812 C 25.121094 10.394531 25.121094 9.605469 24.632812 9.117188 Z M 24.632812 9.117188 "/>
<path style=" stroke:none;fill-rule:nonzero;fill:rgb(27.843137%,29.803922%,32.941176%);fill-opacity:1;" d="M 35.367188 25.882812 C 35.855469 26.371094 36.644531 26.371094 37.132812 25.882812 L 44.632812 18.382812 C 45.121094 17.894531 45.121094 17.105469 44.632812 16.617188 L 37.132812 9.117188 C 36.820312 8.792969 36.355469 8.660156 35.917969 8.773438 C 35.480469 8.890625 35.140625 9.230469 35.023438 9.667969 C 34.910156 10.105469 35.042969 10.570312 35.367188 10.882812 L 41.984375 17.5 L 35.367188 24.117188 C 34.878906 24.605469 34.878906 25.394531 35.367188 25.882812 Z M 35.367188 25.882812 "/>
</g>
</svg>
