<?xml version="1.0" encoding="UTF-8"?>
<svg xmlns="http://www.w3.org/2000/svg" xmlns:xlink="http://www.w3.org/1999/xlink" width="60px" height="60px" viewBox="0 0 60 60" version="1.1">
<g id="surface1">
<path style=" stroke:none;fill-rule:nonzero;fill:rgb(29.803922%,1.960784%,33.72549%);fill-opacity:1;" d="M 60 30 C 60 46.570312 46.570312 60 30 60 C 13.429688 60 0 46.570312 0 30 C 0 13.429688 13.429688 0 30 0 C 46.570312 0 60 13.429688 60 30 Z M 60 30 "/>
<path style=" stroke:none;fill-rule:nonzero;fill:rgb(100%,100%,100%);fill-opacity:1;" d="M 40.152344 22.394531 C 40.152344 27.617188 35.917969 31.847656 30.695312 31.847656 C 25.476562 31.847656 21.242188 27.617188 21.242188 22.394531 C 21.242188 17.171875 25.476562 12.9375 30.695312 12.9375 C 35.917969 12.9375 40.152344 17.171875 40.152344 22.394531 Z M 40.152344 22.394531 "/>
<path style=" stroke:none;fill-rule:nonzero;fill:rgb(100%,100%,100%);fill-opacity:1;" d="M 33.726562 24.089844 C 33.726562 29.3125 29.496094 33.546875 24.273438 33.546875 C 19.050781 33.546875 14.816406 29.3125 14.816406 24.089844 C 14.816406 18.871094 19.050781 14.636719 24.273438 14.636719 C 29.496094 14.636719 33.726562 18.871094 33.726562 24.089844 Z M 33.726562 24.089844 "/>
<path style=" stroke:none;fill-rule:nonzero;fill:rgb(100%,100%,100%);fill-opacity:1;" d="M 37.574219 31.515625 C 37.574219 36.738281 33.34375 40.96875 28.121094 40.96875 C 22.898438 40.96875 18.667969 36.738281 18.667969 31.515625 C 18.667969 26.292969 22.898438 22.0625 28.121094 22.0625 C 33.34375 22.0625 37.574219 26.292969 37.574219 31.515625 Z M 37.574219 31.515625 "/>
<path style=" stroke:none;fill-rule:nonzero;fill:rgb(100%,100%,100%);fill-opacity:1;" d="M 27.363281 31 C 27.363281 36.222656 23.128906 40.453125 17.910156 40.453125 C 12.6875 40.453125 8.453125 36.222656 8.453125 31 C 8.453125 25.777344 12.6875 21.546875 17.910156 21.546875 C 23.128906 21.546875 27.363281 25.777344 27.363281 31 Z M 27.363281 31 "/>
<path style=" stroke:none;fill-rule:nonzero;fill:rgb(100%,100%,100%);fill-opacity:1;" d="M 47.03125 24.9375 C 47.03125 30.160156 42.796875 34.394531 37.574219 34.394531 C 32.355469 34.394531 28.121094 30.160156 28.121094 24.9375 C 28.121094 19.71875 32.355469 15.484375 37.574219 15.484375 C 42.796875 15.484375 47.03125 19.71875 47.03125 24.9375 Z M 47.03125 24.9375 "/>
<path style=" stroke:none;fill-rule:nonzero;fill:rgb(100%,100%,100%);fill-opacity:1;" d="M 51.515625 31.515625 C 51.515625 36.738281 47.28125 40.96875 42.0625 40.96875 C 36.839844 40.96875 32.605469 36.738281 32.605469 31.515625 C 32.605469 26.292969 36.839844 22.0625 42.0625 22.0625 C 47.28125 22.0625 51.515625 26.292969 51.515625 31.515625 Z M 51.515625 31.515625 "/>
</g>
</svg>
